<svg width="311" height="62" viewBox="0 0 311 62" fill="none" xmlns="http://www.w3.org/2000/svg">
<path d="M20.008 61.84C16.256 61.84 12.896 60.916 9.928 59.068C6.96 57.22 4.608 54.7 2.872 51.508C1.192 48.316 0.352 44.732 0.352 40.756C0.352 36.724 1.192 33.112 2.872 29.92C4.608 26.728 6.932 24.208 9.844 22.36C12.812 20.512 16.2 19.588 20.008 19.588C22.92 19.588 25.524 20.176 27.82 21.352C30.172 22.528 32.048 24.18 33.448 26.308C34.904 28.38 35.688 30.732 35.8 33.364V47.812C35.688 50.444 34.932 52.824 33.532 54.952C32.132 57.08 30.256 58.76 27.904 59.992C25.552 61.224 22.92 61.84 20.008 61.84ZM21.856 51.676C23.928 51.676 25.72 51.228 27.232 50.332C28.8 49.38 30.004 48.092 30.844 46.468C31.74 44.788 32.188 42.856 32.188 40.672C32.188 38.544 31.74 36.668 30.844 35.044C30.004 33.364 28.8 32.076 27.232 31.18C25.72 30.228 23.956 29.752 21.94 29.752C19.868 29.752 18.048 30.228 16.48 31.18C14.968 32.132 13.764 33.42 12.868 35.044C12.028 36.668 11.608 38.544 11.608 40.672C11.608 42.856 12.028 44.788 12.868 46.468C13.764 48.092 14.996 49.38 16.564 50.332C18.132 51.228 19.896 51.676 21.856 51.676ZM42.52 61H31.6V50.08L33.364 40.168L31.516 30.424V0.267996H42.52V61ZM73.0028 61.84C68.9148 61.84 65.2188 60.916 61.9148 59.068C58.6668 57.164 56.0628 54.616 54.1028 51.424C52.1988 48.176 51.2468 44.564 51.2468 40.588C51.2468 36.612 52.1988 33.056 54.1028 29.92C56.0068 26.728 58.6108 24.208 61.9148 22.36C65.2188 20.456 68.8868 19.504 72.9188 19.504C77.0628 19.504 80.7588 20.456 84.0068 22.36C87.3108 24.208 89.9148 26.728 91.8188 29.92C93.7228 33.056 94.6748 36.612 94.6748 40.588C94.6748 44.564 93.7228 48.176 91.8188 51.424C89.9148 54.616 87.3108 57.164 84.0068 59.068C80.7588 60.916 77.0908 61.84 73.0028 61.84ZM72.9188 51.592C74.9908 51.592 76.8108 51.144 78.3788 50.248C80.0028 49.296 81.2348 48.008 82.0748 46.384C82.9708 44.704 83.4188 42.8 83.4188 40.672C83.4188 38.544 82.9708 36.668 82.0748 35.044C81.1788 33.42 79.9468 32.16 78.3788 31.264C76.8108 30.312 74.9908 29.836 72.9188 29.836C70.9028 29.836 69.1108 30.312 67.5428 31.264C65.9748 32.16 64.7428 33.42 63.8468 35.044C62.9508 36.668 62.5028 38.544 62.5028 40.672C62.5028 42.8 62.9508 44.704 63.8468 46.384C64.7428 48.008 65.9748 49.296 67.5428 50.248C69.1108 51.144 70.9028 51.592 72.9188 51.592ZM108.419 61V3.544H119.423V61H108.419ZM98.9267 30.088V20.428H128.915V30.088H98.9267ZM136.783 61V20.428H147.787V61H136.783ZM147.787 38.572L143.503 35.716C144.007 30.732 145.463 26.812 147.871 23.956C150.279 21.044 153.751 19.588 158.287 19.588C160.247 19.588 162.011 19.924 163.579 20.596C165.147 21.212 166.575 22.248 167.863 23.704L160.975 31.6C160.359 30.928 159.603 30.424 158.707 30.088C157.867 29.752 156.887 29.584 155.767 29.584C153.415 29.584 151.483 30.34 149.971 31.852C148.515 33.308 147.787 35.548 147.787 38.572ZM191.664 61.84C187.408 61.84 183.628 60.944 180.324 59.152C177.02 57.304 174.388 54.784 172.428 51.592C170.524 48.4 169.572 44.76 169.572 40.672C169.572 36.64 170.496 33.056 172.344 29.92C174.248 26.728 176.824 24.208 180.072 22.36C183.32 20.456 186.932 19.504 190.908 19.504C194.828 19.504 198.272 20.4 201.24 22.192C204.264 23.928 206.616 26.336 208.296 29.416C210.032 32.44 210.9 35.884 210.9 39.748C210.9 40.476 210.844 41.232 210.732 42.016C210.676 42.744 210.536 43.584 210.312 44.536L176.208 44.62V36.388L205.188 36.304L200.736 39.748C200.624 37.34 200.176 35.324 199.392 33.7C198.664 32.076 197.572 30.844 196.116 30.004C194.716 29.108 192.98 28.66 190.908 28.66C188.724 28.66 186.82 29.164 185.196 30.172C183.572 31.124 182.312 32.496 181.416 34.288C180.576 36.024 180.156 38.096 180.156 40.504C180.156 42.968 180.604 45.124 181.5 46.972C182.452 48.764 183.796 50.164 185.532 51.172C187.268 52.124 189.284 52.6 191.58 52.6C193.652 52.6 195.528 52.264 197.208 51.592C198.888 50.864 200.344 49.8 201.576 48.4L208.044 54.868C206.084 57.164 203.676 58.9 200.82 60.076C198.02 61.252 194.968 61.84 191.664 61.84ZM236.353 61.84C232.657 61.84 229.325 60.916 226.357 59.068C223.389 57.22 221.065 54.7 219.385 51.508C217.705 48.316 216.865 44.732 216.865 40.756C216.865 36.724 217.705 33.112 219.385 29.92C221.065 26.728 223.389 24.208 226.357 22.36C229.325 20.512 232.657 19.588 236.353 19.588C239.265 19.588 241.869 20.176 244.165 21.352C246.461 22.528 248.281 24.18 249.625 26.308C251.025 28.38 251.781 30.732 251.893 33.364V47.98C251.781 50.668 251.025 53.048 249.625 55.12C248.281 57.192 246.461 58.844 244.165 60.076C241.869 61.252 239.265 61.84 236.353 61.84ZM238.369 51.676C241.449 51.676 243.941 50.668 245.845 48.652C247.749 46.58 248.701 43.92 248.701 40.672C248.701 38.544 248.253 36.668 247.357 35.044C246.517 33.364 245.313 32.076 243.745 31.18C242.233 30.228 240.441 29.752 238.369 29.752C236.353 29.752 234.561 30.228 232.993 31.18C231.481 32.076 230.277 33.364 229.381 35.044C228.541 36.668 228.121 38.544 228.121 40.672C228.121 42.856 228.541 44.788 229.381 46.468C230.277 48.092 231.481 49.38 232.993 50.332C234.561 51.228 236.353 51.676 238.369 51.676ZM248.113 61V50.08L249.877 40.168L248.113 30.424V20.428H259.033V61H248.113ZM287.584 61.84C283.832 61.84 280.472 60.916 277.504 59.068C274.536 57.22 272.184 54.7 270.448 51.508C268.768 48.316 267.928 44.732 267.928 40.756C267.928 36.724 268.768 33.112 270.448 29.92C272.184 26.728 274.508 24.208 277.42 22.36C280.388 20.512 283.776 19.588 287.584 19.588C290.496 19.588 293.1 20.176 295.396 21.352C297.748 22.528 299.624 24.18 301.024 26.308C302.48 28.38 303.264 30.732 303.376 33.364V47.812C303.264 50.444 302.508 52.824 301.108 54.952C299.708 57.08 297.832 58.76 295.48 59.992C293.128 61.224 290.496 61.84 287.584 61.84ZM289.432 51.676C291.504 51.676 293.296 51.228 294.808 50.332C296.376 49.38 297.58 48.092 298.42 46.468C299.316 44.788 299.764 42.856 299.764 40.672C299.764 38.544 299.316 36.668 298.42 35.044C297.58 33.364 296.376 32.076 294.808 31.18C293.296 30.228 291.532 29.752 289.516 29.752C287.444 29.752 285.624 30.228 284.056 31.18C282.544 32.132 281.34 33.42 280.444 35.044C279.604 36.668 279.184 38.544 279.184 40.672C279.184 42.856 279.604 44.788 280.444 46.468C281.34 48.092 282.572 49.38 284.14 50.332C285.708 51.228 287.472 51.676 289.432 51.676ZM310.096 61H299.176V50.08L300.94 40.168L299.092 30.424V0.267996H310.096V61Z" fill="#333333"/>
</svg>
